<svg width="13" height="9" viewBox="0 0 13 9" fill="none" xmlns="http://www.w3.org/2000/svg">
<path d="M5.87297 7.87414C5.92856 7.94475 6.00295 8.00248 6.08972 8.04236C6.1765 8.08224 6.27306 8.10308 6.37109 8.10308C6.46912 8.10308 6.56568 8.08224 6.65246 8.04236C6.73923 8.00248 6.81362 7.94475 6.86921 7.87414L12.3231 0.985246C12.3862 0.905788 12.4233 0.812722 12.4302 0.716158C12.437 0.619593 12.4135 0.523225 12.3622 0.437522C12.3108 0.351819 12.2336 0.28006 12.1389 0.230041C12.0442 0.180022 11.9356 0.153657 11.825 0.153809H0.917193C0.806808 0.154208 0.698636 0.180913 0.604309 0.231051C0.509982 0.28119 0.43307 0.352865 0.381843 0.43837C0.330617 0.523874 0.307014 0.619973 0.313573 0.716331C0.320132 0.812688 0.356605 0.905659 0.41907 0.985246L5.87297 7.87414Z" fill="#4E5983"/>
</svg>
