<svg width="27" height="27" viewBox="0 0 27 27" fill="none" xmlns="http://www.w3.org/2000/svg">
<g clip-path="url(#clip0)">
<path d="M13.5068 26.3807C20.7422 26.3807 26.6077 20.5152 26.6077 13.2798C26.6077 6.04434 20.7422 0.178848 13.5068 0.178848C6.27134 0.178848 0.405853 6.04434 0.405853 13.2798C0.405853 20.5152 6.27134 26.3807 13.5068 26.3807Z" fill="#3B5998"/>
<path d="M16.798 13.7942H14.4603V22.3584H10.9185V13.7942H9.23398V10.7843H10.9185V8.83664C10.9185 7.44383 11.5801 5.26283 14.4918 5.26283L17.1154 5.27381V8.19535H15.2118C14.8996 8.19535 14.4605 8.35135 14.4605 9.01577V10.7871H17.1074L16.798 13.7942Z" fill="white"/>
</g>
<defs>
<clipPath id="clip0">
<rect x="0.402344" y="0.179688" width="26.2019" height="26.2019" fill="white"/>
</clipPath>
</defs>
</svg>
