<svg width="28" height="29" viewBox="0 0 28 29" fill="none" xmlns="http://www.w3.org/2000/svg">
<g clip-path="url(#clip0)">
<path d="M2.26834 2.79833C0.111264 5.0389 0.552744 7.41901 0.552744 14.6497C0.552744 20.6543 -0.494915 26.6738 4.98814 28.0908C6.70031 28.5312 21.8708 28.5312 23.5807 28.0886C25.8635 27.4995 27.721 25.6478 27.9749 22.4191C28.0103 21.9684 28.0103 7.33895 27.9737 6.87917C27.7038 3.43996 25.5868 1.45787 22.7972 1.05642C22.1579 0.963779 22.0298 0.93633 18.7495 0.930611C7.11434 0.93633 4.56382 0.418219 2.26834 2.79833Z" fill="url(#paint0_linear)"/>
<path d="M14.272 4.52345C10.1191 4.52345 6.17552 4.15403 4.66923 8.01984C4.04703 9.6165 4.13739 11.6901 4.13739 14.6592C4.13739 17.2646 4.0539 19.7134 4.66923 21.2974C6.17209 25.1655 10.1477 24.795 14.2697 24.795C18.2465 24.795 22.3468 25.209 23.8714 21.2974C24.4947 19.6848 24.4032 17.6421 24.4032 14.6592C24.4032 10.6996 24.6216 8.14337 22.7013 6.22418C20.757 4.27984 18.1275 4.52345 14.2674 4.52345H14.272ZM13.3639 6.34999C22.0265 6.33627 23.1291 5.37325 22.5206 18.7515C22.3044 23.4831 18.7017 22.9639 14.2732 22.9639C6.1984 22.9639 5.96622 22.7328 5.96622 14.6546C5.96622 6.48267 6.60671 6.35457 13.3639 6.34771V6.34999ZM19.6819 8.03243C19.0105 8.03243 18.4661 8.57684 18.4661 9.24821C18.4661 9.91959 19.0105 10.464 19.6819 10.464C20.3532 10.464 20.8977 9.91959 20.8977 9.24821C20.8977 8.57684 20.3532 8.03243 19.6819 8.03243ZM14.272 9.45409C11.3978 9.45409 9.06802 11.785 9.06802 14.6592C9.06802 17.5334 11.3978 19.8632 14.272 19.8632C17.1462 19.8632 19.4748 17.5334 19.4748 14.6592C19.4748 11.785 17.1462 9.45409 14.272 9.45409ZM14.272 11.2806C18.7383 11.2806 18.744 18.0378 14.272 18.0378C9.80687 18.0378 9.80001 11.2806 14.272 11.2806Z" fill="white"/>
</g>
<defs>
<linearGradient id="paint0_linear" x1="2.32098" y1="26.627" x2="27.8325" y2="4.54708" gradientUnits="userSpaceOnUse">
<stop stop-color="#FFDD55"/>
<stop offset="0.5" stop-color="#FF543E"/>
<stop offset="1" stop-color="#C837AB"/>
</linearGradient>
<clipPath id="clip0">
<rect x="0.550781" y="0.931641" width="27.4496" height="27.4496" fill="white"/>
</clipPath>
</defs>
</svg>
