<svg width="27" height="27" viewBox="0 0 27 27" fill="none" xmlns="http://www.w3.org/2000/svg">
<g clip-path="url(#clip0)">
<path d="M13.1009 26.3814C20.3364 26.3814 26.2019 20.5159 26.2019 13.2804C26.2019 6.04498 20.3364 0.179489 13.1009 0.179489C5.86549 0.179489 0 6.04498 0 13.2804C0 20.5159 5.86549 26.3814 13.1009 26.3814Z" fill="#4D76A1"/>
<path fill-rule="evenodd" clip-rule="evenodd" d="M12.6084 19.0268H13.6367C13.6367 19.0268 13.9473 18.9927 14.1059 18.8217C14.2518 18.6648 14.2472 18.3701 14.2472 18.3701C14.2472 18.3701 14.2271 16.9903 14.8674 16.7872C15.4987 16.587 16.3093 18.1207 17.1685 18.7103C17.8182 19.1566 18.3119 19.0588 18.3119 19.0588L20.6092 19.0268C20.6092 19.0268 21.8109 18.9527 21.2411 18.0079C21.1944 17.9306 20.9093 17.3089 19.533 16.0314C18.0926 14.6944 18.2855 14.9107 20.0207 12.598C21.0774 11.1895 21.4999 10.3296 21.3679 9.96135C21.242 9.61058 20.4648 9.70329 20.4648 9.70329L17.8782 9.71941C17.8782 9.71941 17.6865 9.69325 17.5442 9.77826C17.4053 9.86163 17.3158 10.0559 17.3158 10.0559C17.3158 10.0559 16.9064 11.1458 16.3604 12.0728C15.2086 14.0286 14.7481 14.1318 14.5599 14.0104C14.122 13.7274 14.2313 12.8733 14.2313 12.2666C14.2313 10.3712 14.5188 9.58092 13.6715 9.37634C13.3903 9.30838 13.1834 9.26354 12.4643 9.2563C11.5414 9.24673 10.7602 9.25911 10.3179 9.47583C10.0236 9.61992 9.79665 9.94103 9.9349 9.95948C10.1059 9.98237 10.4931 10.0639 10.6983 10.3434C10.9634 10.704 10.9541 11.5139 10.9541 11.5139C10.9541 11.5139 11.1063 13.7451 10.5984 14.0223C10.2497 14.2124 9.77143 13.8243 8.74457 12.0499C8.21841 11.1409 7.82116 10.1363 7.82116 10.1363C7.82116 10.1363 7.74456 9.94851 7.60794 9.84809C7.44213 9.72641 7.21046 9.68765 7.21046 9.68765L4.75249 9.70376C4.75249 9.70376 4.3835 9.71404 4.24805 9.87448C4.12755 10.0172 4.23848 10.3124 4.23848 10.3124C4.23848 10.3124 6.16282 14.8145 8.34172 17.0833C10.3396 19.1634 12.6084 19.0268 12.6084 19.0268Z" fill="white"/>
</g>
<defs>
<clipPath id="clip0">
<rect y="0.179489" width="26.2019" height="26.2019" fill="white"/>
</clipPath>
</defs>
</svg>
